<?xml version="1.0" encoding="utf-8"?>
<!-- Generator: Adobe Illustrator 16.0.0, SVG Export Plug-In . SVG Version: 6.00 Build 0)  -->
<!DOCTYPE svg PUBLIC "-//W3C//DTD SVG 1.1//EN" "http://www.w3.org/Graphics/SVG/1.1/DTD/svg11.dtd">
<svg version="1.1" id="Layer_1" xmlns="http://www.w3.org/2000/svg" xmlns:xlink="http://www.w3.org/1999/xlink" x="0px" y="0px"
	 width="39.636px" height="129.746px" viewBox="0 0 39.636 129.746" enable-background="new 0 0 39.636 129.746"
	 xml:space="preserve">
<g>
	<g>
		<path fill="#198C02" d="M8.65,129.746H4.07c0-3.513-0.83-5.168-1.791-7.083C1.211,120.535,0,118.122,0,113.524
			s1.211-7.009,2.279-9.138c0.961-1.915,1.791-3.569,1.791-7.083c0-3.511-0.83-5.166-1.791-7.081C1.211,88.095,0,85.683,0,81.086
			c0-4.598,1.211-7.008,2.279-9.136c0.961-1.916,1.791-3.57,1.791-7.083c0-3.512-0.83-5.166-1.791-7.082
			C1.211,55.657,0,53.246,0,48.649c0-4.598,1.211-7.008,2.279-9.136c0.961-1.916,1.791-3.571,1.791-7.083
			c0-3.511-0.83-5.165-1.791-7.081C1.211,23.223,0,20.812,0,16.215c0-4.597,1.211-7.008,2.279-9.135C3.24,5.165,4.07,3.511,4.07,0
			h4.58c0,4.596-1.211,7.007-2.28,9.135c-0.96,1.915-1.79,3.569-1.79,7.08c0,3.512,0.83,5.165,1.79,7.08
			c1.069,2.128,2.28,4.54,2.28,9.135c0,4.598-1.211,7.008-2.28,9.136c-0.96,1.916-1.79,3.57-1.79,7.082s0.83,5.167,1.79,7.082
			c1.069,2.127,2.28,4.539,2.28,9.136c0,4.598-1.211,7.01-2.28,9.136c-0.96,1.917-1.79,3.571-1.79,7.083s0.83,5.166,1.79,7.082
			c1.069,2.127,2.28,4.54,2.28,9.136c0,4.598-1.211,7.01-2.28,9.137c-0.96,1.916-1.79,3.571-1.79,7.083
			c0,3.513,0.83,5.168,1.79,7.083C7.439,122.736,8.65,125.148,8.65,129.746z"/>
	</g>
	<g>
		<path fill="#33A809" d="M18.979,129.746h-4.579c0-3.513-0.83-5.168-1.791-7.083c-1.068-2.127-2.279-4.54-2.279-9.138
			s1.211-7.009,2.279-9.138c0.961-1.915,1.791-3.569,1.791-7.083c0-3.511-0.83-5.166-1.791-7.081
			c-1.068-2.128-2.279-4.54-2.279-9.137c0-4.598,1.211-7.008,2.279-9.136c0.961-1.916,1.791-3.57,1.791-7.083
			c0-3.512-0.83-5.166-1.791-7.082c-1.068-2.127-2.279-4.539-2.279-9.136c0-4.598,1.211-7.008,2.279-9.136
			c0.961-1.916,1.791-3.571,1.791-7.083c0-3.511-0.83-5.165-1.791-7.081c-1.068-2.127-2.279-4.538-2.279-9.135
			c0-4.597,1.211-7.008,2.279-9.135c0.961-1.915,1.791-3.569,1.791-7.08h4.579c0,4.596-1.209,7.007-2.276,9.135
			c-0.964,1.915-1.794,3.569-1.794,7.08c0,3.512,0.83,5.165,1.794,7.08c1.067,2.128,2.276,4.54,2.276,9.135
			c0,4.598-1.209,7.008-2.276,9.136c-0.964,1.916-1.794,3.57-1.794,7.082s0.83,5.167,1.794,7.082
			c1.067,2.127,2.276,4.539,2.276,9.136c0,4.598-1.209,7.01-2.276,9.136c-0.964,1.917-1.794,3.571-1.794,7.083
			s0.83,5.166,1.794,7.082c1.067,2.127,2.276,4.54,2.276,9.136c0,4.598-1.209,7.01-2.276,9.137
			c-0.964,1.916-1.794,3.571-1.794,7.083c0,3.513,0.83,5.168,1.794,7.083C17.77,122.736,18.979,125.148,18.979,129.746z"/>
	</g>
	<g>
		<path fill="#86CA17" d="M29.308,129.746h-4.579c0-3.513-0.831-5.168-1.792-7.083c-1.068-2.127-2.279-4.54-2.279-9.138
			s1.211-7.009,2.279-9.138c0.961-1.915,1.792-3.569,1.792-7.083c0-3.511-0.831-5.166-1.792-7.081
			c-1.068-2.128-2.279-4.54-2.279-9.137c0-4.598,1.211-7.008,2.279-9.136c0.961-1.916,1.792-3.57,1.792-7.083
			c0-3.512-0.831-5.166-1.792-7.082c-1.068-2.127-2.279-4.539-2.279-9.136c0-4.598,1.211-7.008,2.279-9.136
			c0.961-1.916,1.792-3.571,1.792-7.083c0-3.511-0.831-5.165-1.792-7.081c-1.068-2.127-2.279-4.538-2.279-9.135
			c0-4.597,1.211-7.008,2.279-9.135c0.961-1.915,1.792-3.569,1.792-7.08h4.579c0,4.596-1.211,7.007-2.279,9.135
			c-0.961,1.915-1.792,3.569-1.792,7.08c0,3.512,0.831,5.165,1.792,7.08c1.068,2.128,2.279,4.54,2.279,9.135
			c0,4.598-1.211,7.008-2.279,9.136c-0.961,1.916-1.792,3.57-1.792,7.082s0.831,5.167,1.792,7.082
			c1.068,2.127,2.279,4.539,2.279,9.136c0,4.598-1.211,7.01-2.279,9.136c-0.961,1.917-1.792,3.571-1.792,7.083
			s0.831,5.166,1.792,7.082c1.068,2.127,2.279,4.54,2.279,9.136c0,4.598-1.211,7.01-2.279,9.137
			c-0.961,1.916-1.792,3.571-1.792,7.083c0,3.513,0.831,5.168,1.792,7.083C28.097,122.736,29.308,125.148,29.308,129.746z"/>
	</g>
	<g>
		<path fill="#B0D115" d="M39.636,129.746h-4.581c0-3.513-0.829-5.168-1.791-7.083c-1.068-2.127-2.277-4.54-2.277-9.138
			s1.209-7.009,2.277-9.138c0.962-1.915,1.791-3.569,1.791-7.083c0-3.511-0.829-5.166-1.791-7.081
			c-1.068-2.128-2.277-4.54-2.277-9.137c0-4.598,1.209-7.008,2.277-9.136c0.962-1.916,1.791-3.57,1.791-7.083
			c0-3.512-0.829-5.166-1.791-7.082c-1.068-2.127-2.277-4.539-2.277-9.136c0-4.598,1.209-7.008,2.277-9.136
			c0.962-1.916,1.791-3.571,1.791-7.083c0-3.511-0.829-5.165-1.791-7.081c-1.068-2.127-2.277-4.538-2.277-9.135
			c0-4.597,1.209-7.008,2.277-9.135c0.962-1.915,1.791-3.569,1.791-7.08h4.581c0,4.596-1.211,7.007-2.28,9.135
			c-0.96,1.915-1.791,3.569-1.791,7.08c0,3.512,0.831,5.165,1.791,7.08c1.069,2.128,2.28,4.54,2.28,9.135
			c0,4.598-1.211,7.008-2.28,9.136c-0.96,1.916-1.791,3.57-1.791,7.082s0.831,5.167,1.791,7.082c1.069,2.127,2.28,4.539,2.28,9.136
			c0,4.598-1.211,7.01-2.28,9.136c-0.96,1.917-1.791,3.571-1.791,7.083s0.831,5.166,1.791,7.082c1.069,2.127,2.28,4.54,2.28,9.136
			c0,4.598-1.211,7.01-2.28,9.137c-0.96,1.916-1.791,3.571-1.791,7.083c0,3.513,0.831,5.168,1.791,7.083
			C38.425,122.736,39.636,125.148,39.636,129.746z"/>
	</g>
</g>
</svg>
