<svg id="Layer_1" xmlns="http://www.w3.org/2000/svg" viewBox="0 0 270 65"><style>.st0{enable-background:new}.st1{fill:#ffc705}.st2{fill:#fff}</style><g id="text"><g class="st0"><path class="st1" d="M105.5 25.2H103l-.5 1.5h-1.2l2.4-6.4h1l2.4 6.4H106l-.5-1.5zm-2.2-.9h1.9l-.9-2.7-1 2.7zM110.8 22c0-.3-.1-.5-.3-.7-.2-.2-.5-.3-.9-.3-.3 0-.6.1-.8.3-.2.2-.3.4-.3.7h-1.1c0-.3.1-.7.3-.9.2-.3.5-.5.8-.6.3-.2.7-.2 1.1-.2.7 0 1.3.2 1.7.5.4.3.6.8.6 1.3 0 .3-.1.6-.3.8-.2.2-.4.4-.7.6.4.1.6.3.8.6.2.2.3.6.3.9 0 .6-.2 1-.7 1.4-.4.3-1 .5-1.8.5-.5 0-.9-.1-1.2-.2-.4-.2-.6-.4-.8-.7-.2-.3-.3-.6-.3-1h1.1c0 .3.1.5.3.7.2.2.5.3.9.3s.7-.1.9-.3.4-.4.4-.7c0-.4-.1-.6-.3-.8-.2-.2-.5-.2-.9-.2h-.8v-1h.7c.9 0 1.3-.4 1.3-1zM113.9 24.3v2.4h-1.1v-6.4h2.4c.7 0 1.3.2 1.7.6.4.4.6.9.6 1.5s-.2 1.1-.6 1.5c-.4.3-1 .5-1.7.5h-1.3zm0-.9h1.3c.4 0 .7-.1.9-.3.2-.2.3-.5.3-.8 0-.3-.1-.6-.3-.8-.2-.2-.5-.3-.9-.3h-1.4v2.2zM119.4 22.7h1.3c.5 0 .9.1 1.2.2s.6.4.8.7.3.6.3 1c0 .6-.2 1.1-.6 1.4-.4.4-1 .5-1.7.6h-2.4v-6.4h1.1v2.5zm0 .9v2.2h1.3c.4 0 .7-.1.9-.3s.3-.5.3-.8c0-.3-.1-.6-.3-.8s-.5-.3-.9-.3h-1.3zm5.4 3.1h-1.1v-6.4h1.1v6.4zM131 26.7h-1.1v-2.8H127v2.8h-1.1v-6.4h1.1V23h2.9v-2.7h1.1v6.4zM136.2 22.6l1.3-2.3h1.3l-1.9 3.2 2 3.2h-1.3l-1.4-2.3-1.4 2.3h-1.3l2-3.2-1.9-3.2h1.3l1.3 2.3zM140.4 24.6c.1.5.2.8.4 1 .2.2.5.3 1 .3s.8-.2 1.1-.5c.2-.3.4-.8.4-1.4H141v-1h2.3c0-.6-.2-1.1-.4-1.5-.3-.3-.6-.5-1.1-.5-.4 0-.7.1-.9.3-.2.2-.4.5-.4 1h-1.1c.1-.7.3-1.2.8-1.6.4-.4 1-.6 1.7-.6.5 0 1 .1 1.4.4s.7.6.9 1.1c.2.5.3 1 .3 1.6v.5c0 .6-.1 1.1-.3 1.6-.2.5-.5.8-.9 1.1s-.8.4-1.4.4c-.7 0-1.3-.2-1.7-.6-.4-.4-.7-.9-.8-1.6h1zM146.2 24.3v2.4h-1.1v-6.4h2.4c.7 0 1.3.2 1.7.6.4.4.6.9.6 1.5s-.2 1.1-.6 1.5c-.4.3-1 .5-1.7.5h-1.3zm0-.9h1.3c.4 0 .7-.1.9-.3.2-.2.3-.5.3-.8 0-.3-.1-.6-.3-.8-.2-.2-.5-.3-.9-.3h-1.4v2.2zM151.6 24.6c.1.5.2.8.4 1 .2.2.5.3 1 .3s.8-.2 1.1-.5c.2-.3.4-.8.4-1.4h-2.3v-1h2.3c0-.6-.2-1.1-.4-1.5-.3-.3-.6-.5-1.1-.5-.4 0-.7.1-.9.3-.2.2-.4.5-.4 1h-1.1c.1-.7.3-1.2.8-1.6.4-.4 1-.6 1.7-.6.5 0 1 .1 1.4.4s.7.6.9 1.1c.2.5.3 1 .3 1.6v.5c0 .6-.1 1.1-.3 1.6-.2.5-.5.8-.9 1.1s-.8.4-1.4.4c-.7 0-1.3-.2-1.7-.6-.4-.4-.7-.9-.8-1.6h1zM160.4 21.2h-3v5.5h-1.1v-6.4h4.1v.9zM166.1 23.9h-.7v2.8h-1.1v-2.8h-.7l-1.6 2.8h-1.4l2.1-3.4-1.9-3h1.3l1.5 2.7h.7v-2.7h1.1V23h.7l1.5-2.7h1.3l-1.9 3 2 3.4h-1.4l-1.5-2.8z"/></g><path class="st1" d="M72 24.6c-.1.7-.3 1.2-.8 1.6-.4.4-1 .6-1.8.6-.5 0-1-.1-1.3-.4-.4-.2-.7-.6-.9-1s-.3-1-.3-1.6v-.6c0-.6.1-1.1.3-1.6s.5-.8.9-1.1c.4-.2.9-.4 1.4-.4.7 0 1.3.2 1.7.6.4.4.7.9.8 1.6h-1.1c-.1-.5-.2-.8-.4-1-.2-.2-.5-.3-.9-.3-.5 0-.9.2-1.1.5-.3.5-.5 1-.5 1.7v.6c0 .7.1 1.2.4 1.6.2.4.6.5 1.1.5.4 0 .8-.1 1-.3.2-.2.4-.5.4-1H72zM76.9 21.2h-3v5.5h-1.1v-6.4h4.1v.9zM81.6 20.3h1.1v6.4h-1.1v-4.6l-2.8 4.6h-1.1v-6.4h1.1v4.6l2.8-4.6zM87.8 20.3h1.1v6.4h-1.1v-4.6L85 26.7h-1.1v-6.4H85v4.6l2.8-4.6zm0-1.7c0 .4-.1.7-.4.9s-.6.3-1 .3-.8-.1-1-.3-.4-.5-.4-.9h.8c0 .2.1.3.2.5.1.1.3.2.5.2s.3-.1.5-.2c.1-.1.2-.3.2-.5h.6zM95.1 26.7H94v-2.8h-2.9v2.8H90v-6.4h1.1V23H94v-2.7h1.1v6.4zM65 25.2h-2.5l-.5 1.5h-1.2l2.4-6.4h1l2.4 6.4h-1.2l-.4-1.5zm-2.2-.9h1.9l-.9-2.7-1 2.7zM59.4 22c0-.3-.1-.5-.3-.7-.2-.2-.5-.3-.9-.3-.3 0-.6.1-.8.3-.2.2-.3.4-.3.7H56c0-.3.1-.7.3-.9.2-.3.5-.5.8-.6.3-.2.7-.2 1.1-.2.7 0 1.3.2 1.7.5.4.3.6.8.6 1.3 0 .3-.1.6-.3.8-.2.2-.4.4-.7.6.4.1.6.3.8.6.2.2.3.6.3.9 0 .6-.2 1-.7 1.4-.4.3-1 .5-1.8.5-.5 0-.9-.1-1.2-.2-.4-.2-.6-.4-.8-.7-.2-.3-.3-.6-.3-1H57c0 .3.1.5.3.7.2.2.5.3.9.3s.7-.1.9-.3.4-.4.4-.7c0-.4-.1-.6-.3-.8-.2-.2-.5-.2-.9-.2h-.8v-1h.7c.8 0 1.2-.4 1.2-1zM102.1 21.2h-3v5.5H98v-6.4h4.1v.9zM171.9 23.3l1.5-3h1.2l-2.1 4v2.4h-1.1v-2.4l-2.1-4h1.2l1.4 3zM177.3 23.3l1.5-3h1.2l-2.1 4v2.4h-1.1v-2.4l-2.1-4h1.2l1.4 3zM185.5 20.3v6.4h-1.1v-5.5h-2l-.1 2.5c0 .8-.1 1.4-.3 1.8-.1.4-.4.7-.6.9-.3.2-.6.3-1.1.3h-.3v-.9h.2c.3 0 .5-.1.6-.3.1-.2.2-.4.3-.7.1-.3.1-.8.2-1.4l.1-3.1h4.1zM187.6 24.6c.1.5.2.8.4 1 .2.2.5.3 1 .3s.8-.2 1.1-.5c.2-.3.4-.8.4-1.4h-2.3v-1h2.3c0-.6-.2-1.1-.4-1.5-.3-.3-.6-.5-1.1-.5-.4 0-.7.1-.9.3-.2.2-.4.5-.4 1h-1.1c.1-.7.3-1.2.7-1.6.4-.4 1-.6 1.7-.6.5 0 1 .1 1.4.4s.7.6.9 1.1c.2.5.3 1 .3 1.6v.5c0 .6-.1 1.1-.3 1.6-.2.5-.5.8-.9 1.1s-.8.4-1.4.4c-.7 0-1.3-.2-1.7-.6-.4-.4-.7-.9-.8-1.6h1.1zM196.6 21.2h-3v5.5h-1.1v-6.4h4.1v.9zM202.2 20.3v6.4h-1.1v-2.5c-.5.1-1 .2-1.5.2-.8 0-1.3-.2-1.7-.5-.4-.3-.6-.8-.6-1.5v-2h1.1v2c0 .4.1.7.3.9s.5.3.9.3c.5 0 1-.1 1.5-.2v-3h1.1zM209.1 25.2h-2.5l-.5 1.5h-1.2l2.4-6.4h1l2.4 6.4h-1.2l-.4-1.5zm-2.2-.9h1.9l-.9-2.7-1 2.7zM215.4 21.2h-3v5.5h-1.1v-6.4h4.1v.9zM219.9 23.8h-2.6v2h3.1v.9h-4.2v-6.4h4.2v.9h-3V23h2.6v.8zM225.7 26.7h-1.1v-2.8h-2.9v2.8h-1.1v-6.4h1.1V23h2.9v-2.7h1.1v6.4zM231.2 21.2h-2v5.5h-1.1v-5.5h-2v-.9h5.1v.9zM236.6 20.3v6.4h-1.1v-5.5h-2l-.1 2.5c0 .8-.1 1.4-.3 1.8-.1.4-.4.7-.6.9-.3.2-.6.3-1.1.3h-.3v-.9h.2c.3 0 .5-.1.6-.3.1-.2.2-.4.3-.7.1-.3.1-.8.2-1.4l.1-3.1h4.1zM241.4 25.2h-2.5l-.5 1.5h-1.2l2.4-6.4h1l2.4 6.4h-1.2l-.4-1.5zm-2.1-.9h1.9l-.9-2.7-1 2.7z"/><g class="st0"><path class="st2" d="M62.8 36h-4.6v8.6h-1.7v-10h6.3V36z"/></g><g class="st0"><path class="st2" d="M68.4 42.2h-3.9l-.8 2.3h-1.8l3.8-10h1.6l3.8 10h-1.8l-.9-2.3zM65 40.8h2.9l-1.4-4.1-1.5 4.1zM77.1 37.3c0-.4-.2-.8-.5-1.1s-.8-.4-1.4-.4c-.5 0-.9.1-1.2.4-.3.3-.5.6-.5 1h-1.7c0-.5.2-1 .5-1.4s.7-.8 1.3-1c.5-.2 1.1-.4 1.8-.4 1.1 0 2 .2 2.7.7s.9 1.2.9 2.1c0 .5-.1.9-.4 1.2s-.7.7-1.1.9c.6.2 1 .5 1.3.9.3.4.4.9.4 1.5 0 .9-.3 1.6-1 2.1s-1.6.8-2.7.8c-.7 0-1.3-.1-1.9-.4s-1-.6-1.3-1-.4-.9-.4-1.5h1.7c0 .4.2.8.5 1.1.4.3.8.4 1.4.4.6 0 1.1-.1 1.5-.4s.6-.7.6-1.1c0-.6-.2-1-.5-1.2-.3-.3-.8-.4-1.4-.4h-1.2v-1.4h1.1c.9.1 1.5-.4 1.5-1.4zM86.2 42.2h-3.9l-.8 2.3h-1.8l3.8-10H85l3.8 10H87l-.8-2.3zm-3.4-1.4h2.9l-1.4-4.1-1.5 4.1zM91.6 40.8v3.7h-1.7v-10h3.8c1.1 0 2 .3 2.6.9s1 1.3 1 2.3c0 1-.3 1.7-1 2.3s-1.5.8-2.7.8h-2zm0-1.3h2.1c.6 0 1.1-.1 1.4-.4.3-.3.5-.7.5-1.3 0-.5-.2-1-.5-1.3-.3-.3-.8-.5-1.4-.5h-2.1v3.5zM107.3 37.3c0-.4-.2-.8-.5-1.1s-.8-.4-1.4-.4c-.5 0-.9.1-1.2.4-.3.3-.5.6-.5 1H102c0-.5.2-1 .5-1.4s.7-.8 1.3-1c.5-.2 1.1-.4 1.8-.4 1.1 0 2 .2 2.7.7s.9 1.2.9 2.1c0 .5-.1.9-.4 1.2s-.7.7-1.1.9c.6.2 1 .5 1.3.9.3.4.4.9.4 1.5 0 .9-.3 1.6-1 2.1s-1.6.8-2.7.8c-.7 0-1.3-.1-1.9-.4s-1-.6-1.3-1-.4-.9-.4-1.5h1.7c0 .4.2.8.5 1.1.4.3.8.4 1.4.4.6 0 1.1-.1 1.5-.4s.6-.7.6-1.1c0-.6-.2-1-.5-1.2-.3-.3-.8-.4-1.4-.4h-1.2v-1.4h1.1c.9.1 1.5-.4 1.5-1.4z"/></g><g class="st0"><path class="st2" d="M118.7 39.8c0 1-.2 1.8-.5 2.6-.3.7-.8 1.3-1.4 1.7-.6.4-1.3.6-2.2.6-.8 0-1.5-.2-2.2-.6-.6-.4-1.1-1-1.5-1.7s-.5-1.6-.5-2.5v-.6c0-1 .2-1.8.5-2.6s.8-1.3 1.5-1.7c.6-.4 1.3-.6 2.2-.6s1.5.2 2.2.6c.6.4 1.1 1 1.5 1.7.3.7.5 1.6.5 2.6v.5zm-1.7-.5c0-1.1-.2-1.9-.6-2.5s-1-.9-1.8-.9c-.7 0-1.3.3-1.8.9-.4.6-.6 1.4-.6 2.5v.6c0 1.1.2 1.9.6 2.5s1 .9 1.8.9 1.4-.3 1.8-.9.6-1.4.6-2.6v-.5z"/></g><g class="st0"><path class="st2" d="M123.7 38.2l2.1-3.6h2l-3 4.9 3.1 5h-2l-2.1-3.7-2.1 3.7h-2l3.1-5-3-4.9h2l1.9 3.6zM135.3 34.6h1.7v10h-1.7v-7.1l-4.4 7.1h-1.7v-10h1.7v7.1l4.4-7.1zM147 39.8c0 1-.2 1.8-.5 2.6-.3.7-.8 1.3-1.4 1.7-.6.4-1.3.6-2.2.6-.8 0-1.5-.2-2.2-.6-.6-.4-1.1-1-1.5-1.7-.3-.7-.5-1.6-.5-2.5v-.6c0-1 .2-1.8.5-2.6.3-.7.8-1.3 1.5-1.7.6-.4 1.3-.6 2.2-.6.8 0 1.5.2 2.2.6.6.4 1.1 1 1.5 1.7.3.7.5 1.6.5 2.6v.5zm-1.7-.5c0-1.1-.2-1.9-.6-2.5s-1-.9-1.8-.9c-.7 0-1.3.3-1.8.9-.4.6-.6 1.4-.6 2.5v.6c0 1.1.2 1.9.6 2.5.4.6 1 .9 1.8.9s1.4-.3 1.8-.9c.4-.6.6-1.4.6-2.6v-.5zM156.6 44.5h-1.7v-4.4h-4.5v4.4h-1.7v-10h1.7v4.1h4.5v-4.1h1.7v10zM168.5 36h-4.6v2.4h2c.7 0 1.4.1 1.9.4.5.3 1 .6 1.2 1.1.3.5.4 1 .4 1.6 0 .9-.3 1.7-.9 2.2-.6.6-1.5.9-2.6.9h-3.8v-10h6.3V36zm-4.6 3.8v3.4h2c.6 0 1-.2 1.4-.5.3-.3.5-.7.5-1.3 0-.5-.2-.9-.5-1.2-.3-.3-.8-.4-1.3-.5h-2.1zM176.6 42.2h-3.9l-.8 2.3h-1.8l3.8-10h1.6l3.8 10h-1.8l-.9-2.3zm-3.4-1.4h2.9l-1.4-4.1-1.5 4.1zM186.4 34.6h1.7v10h-1.7v-7.1l-4.4 7.1h-1.7v-10h1.7v7.1l4.4-7.1zm.1-2.5c0 .6-.2 1-.6 1.4-.4.4-.9.5-1.6.5s-1.2-.2-1.6-.5c-.4-.4-.6-.8-.6-1.4h1.2c0 .3.1.5.3.7.2.2.4.2.7.2s.5-.1.7-.2c.2-.2.3-.4.3-.7h1.2zM196.6 36H192v8.6h-1.7v-10h6.3V36zM201.6 39.8l2-5.2h1.9l-3.5 8.3-.3.6c-.5.8-1.2 1.2-2.2 1.2h-.7v-1.4h.6c.5 0 .8-.2 1-.6l.4-.8-3.4-7.2h1.9l2.3 5.1z"/></g><g class="st0"><path class="st2" d="M210.4 39.8l2-5.2h1.9l-3.5 8.3-.3.6c-.5.8-1.2 1.2-2.2 1.2h-.7v-1.4h.6c.5 0 .8-.2 1-.6l.4-.8-3.4-7.2h1.9l2.3 5.1z"/></g><g class="st0"><path class="st2" d="M223.1 34.6v10h-1.7V36h-3l-.2 3.8c-.1 1.2-.2 2.1-.4 2.8-.2.7-.6 1.1-1 1.5s-1 .5-1.7.5h-.4v-1.4h.3c.4 0 .7-.2.9-.4.2-.2.4-.6.5-1.1.1-.5.2-1.2.2-2.2l.2-4.9h6.3z"/></g><g class="st0"><path class="st2" d="M230.9 42.2H227l-.8 2.3h-1.8l3.8-10h1.6l3.8 10h-1.8l-.9-2.3zm-3.4-1.4h2.9l-1.4-4.1-1.5 4.1z"/></g><g class="st0"><path class="st2" d="M242.6 34.6v10h-1.7V36h-3l-.2 3.8c-.1 1.2-.2 2.1-.4 2.8-.2.7-.6 1.1-1 1.5-.4.3-1 .5-1.7.5h-.6v-1.4h.3c.4 0 .7-.2.9-.4.2-.2.4-.6.5-1.1.1-.5.2-1.2.2-2.2l.2-4.9h6.5z"/></g><g class="st0"><path class="st2" d="M251.6 36h-3.1v8.6h-1.7V36h-3.1v-1.4h7.9V36z"/></g><g class="st0"><path class="st2" d="M251.2 46.8l-.9-.5c.3-.4.4-.8.5-1.1.1-.3.1-.6.2-.9V43h1.5v1.2c0 .5-.1 1-.4 1.5-.2.4-.5.8-.9 1.1z"/></g><g class="st0"><path class="st2" d="M62.8 52.8h-4.6v8.6h-1.7v-10h6.3v1.4zM70 56.9h-4.1V60h4.8v1.4h-6.5v-10h6.5v1.4H66v2.7h4v1.4z"/></g><g class="st0"><path class="st2" d="M80.1 56.6c0 1-.2 1.8-.5 2.6-.3.7-.8 1.3-1.4 1.7-.6.4-1.3.6-2.2.6-.8 0-1.5-.2-2.2-.6-.6-.4-1.1-1-1.5-1.7s-.5-1.6-.5-2.5v-.6c0-1 .2-1.8.5-2.6s.8-1.3 1.5-1.7c.6-.4 1.3-.6 2.2-.6s1.5.2 2.2.6c.6.4 1.1 1 1.5 1.7.3.7.5 1.6.5 2.6v.5zm-1.8-.5c0-1.1-.2-1.9-.6-2.5s-1-.9-1.8-.9c-.7 0-1.3.3-1.8.9-.4.6-.6 1.4-.6 2.5v.6c0 1.1.2 1.9.6 2.5s1 .9 1.8.9 1.4-.3 1.8-.9.6-1.4.6-2.6v-.5z"/></g><g class="st0"><path class="st2" d="M90.7 63.8h-1.6v-2.4h-6.6v2.4h-1.7V60h.8c.4-.4.7-.9 1-1.7.2-.7.4-1.6.5-2.5l.3-4.4h6.3V60H91l-.3 3.8zM83.6 60h4.3v-7.2H85l-.2 2.8c-.2 1.9-.6 3.3-1.2 4.4zM97.9 56.9h-4.1V60h4.8v1.4h-6.5v-10h6.5v1.4h-4.7v2.7H98v1.4zM105 54.1c0-.4-.2-.8-.5-1.1s-.8-.4-1.4-.4c-.5 0-.9.1-1.2.4-.3.3-.5.6-.5 1h-1.7c0-.5.2-1 .5-1.4s.7-.8 1.3-1c.5-.2 1.1-.4 1.8-.4 1.1 0 2 .2 2.7.7s.9 1.2.9 2.1c0 .5-.1.9-.4 1.2s-.7.7-1.1.9c.6.2 1 .5 1.3.9.3.4.4.9.4 1.5 0 .9-.3 1.6-1 2.1s-1.6.8-2.7.8c-.7 0-1.3-.1-1.9-.4s-1-.6-1.3-1-.4-.9-.4-1.5h1.7c0 .4.2.8.5 1.1.4.3.8.4 1.4.4.6 0 1.1-.1 1.5-.4s.6-.7.6-1.1c0-.6-.2-1-.5-1.2-.3-.3-.8-.4-1.4-.4h-1.2v-1.4h1.1c.9.1 1.5-.4 1.5-1.4zM114.6 51.4h1.7v10h-1.7v-7.1l-4.4 7.1h-1.7v-10h1.7v7.1l4.4-7.1zM118.5 63.6l-.9-.5c.3-.4.4-.8.5-1.1.1-.3.1-.6.2-.9v-1.3h1.5V61c0 .5-.1 1-.4 1.5-.2.4-.6.8-.9 1.1z"/></g><g class="st0"><path class="st2" d="M129.9 54.1c0-.4-.2-.8-.5-1.1s-.8-.4-1.4-.4c-.5 0-.9.1-1.2.4-.3.3-.5.6-.5 1h-1.7c0-.5.2-1 .5-1.4s.7-.8 1.3-1c.5-.2 1.1-.4 1.8-.4 1.1 0 2 .2 2.7.7s.9 1.2.9 2.1c0 .5-.1.9-.4 1.2s-.7.7-1.1.9c.6.2 1 .5 1.3.9.3.4.4.9.4 1.5 0 .9-.3 1.6-1 2.1s-1.6.8-2.7.8c-.7 0-1.3-.1-1.9-.4s-1-.6-1.3-1-.4-.9-.4-1.5h1.7c0 .4.2.8.5 1.1.4.3.8.4 1.4.4.6 0 1.1-.1 1.5-.4s.6-.7.6-1.1c0-.6-.2-1-.5-1.2-.3-.3-.8-.4-1.4-.4H127v-1.4h1.1c1.2.1 1.8-.4 1.8-1.4z"/></g><g class="st0"><path class="st2" d="M136.9 56.6l2-5.2h1.9l-3.5 8.3-.3.6c-.5.8-1.2 1.2-2.2 1.2h-.7v-1.4h.6c.5 0 .8-.2 1-.6l.4-.8-3.4-7.2h1.9l2.3 5.1z"/></g><g class="st0"><path class="st2" d="M143.9 57.6v3.7h-1.7v-10h3.8c1.1 0 2 .3 2.6.9.7.6 1 1.3 1 2.3 0 1-.3 1.7-1 2.3-.6.5-1.5.8-2.7.8h-2zm0-1.3h2.1c.6 0 1.1-.1 1.4-.4.3-.3.5-.7.5-1.3 0-.5-.2-1-.5-1.3-.3-.3-.8-.5-1.4-.5h-2.1v3.5z"/></g><g class="st0"><path class="st2" d="M155.4 59h-3.9l-.8 2.3H149l3.8-10h1.6l3.8 10h-1.8l-1-2.3zm-3.3-1.4h2.9l-1.4-4.1-1.5 4.1zM165.6 52.8H161v8.6h-1.7v-10h6.3v1.4z"/></g><g class="st0"><path class="st2" d="M175.4 54.1c0-.4-.2-.8-.5-1.1-.3-.3-.8-.4-1.4-.4-.5 0-.9.1-1.2.4-.3.3-.5.6-.5 1h-1.7c0-.5.2-1 .5-1.4s.7-.8 1.3-1c.5-.2 1.1-.4 1.8-.4 1.1 0 2 .2 2.7.7.6.5.9 1.2.9 2.1 0 .5-.1.9-.4 1.2s-.7.7-1.1.9c.6.2 1 .5 1.3.9.3.4.4.9.4 1.5 0 .9-.3 1.6-1 2.1s-1.6.8-2.7.8c-.7 0-1.3-.1-1.9-.4s-1-.6-1.3-1c-.3-.4-.4-.9-.4-1.5h1.7c0 .4.2.8.5 1.1.4.3.8.4 1.4.4.6 0 1.1-.1 1.5-.4.4-.3.6-.7.6-1.1 0-.6-.2-1-.5-1.2-.3-.3-.8-.4-1.4-.4h-1.2v-1.4h1.1c.9.1 1.5-.4 1.5-1.4z"/></g><g class="st0"><path class="st2" d="M182.1 56.1l2.3-4.7h1.9l-3.3 6.3v3.7h-1.7v-3.7l-3.3-6.3h1.9l2.2 4.7zM193.5 51.4h1.7v10h-1.7v-7.1l-4.4 7.1h-1.7v-10h1.7v7.1l4.4-7.1zm0-2.5c0 .6-.2 1-.6 1.4-.4.4-.9.5-1.6.5s-1.2-.2-1.6-.5c-.4-.4-.6-.8-.6-1.4h1.2c0 .3.1.5.3.7.2.2.4.2.7.2s.5-.1.7-.2c.2-.2.3-.4.3-.7h1.2zM205.2 61.3h-1.7v-4.4H199v4.4h-1.7v-10h1.7v4.1h4.5v-4.1h1.7v10z"/></g><g class="st0"><path class="st2" d="M217.1 52.8h-4.6v8.6h-1.7v-10h6.3v1.4z"/></g><g class="st0"><path class="st2" d="M222.7 59h-3.9l-.8 2.3h-1.8l3.8-10h1.6l3.8 10h-1.8l-.9-2.3zm-3.4-1.4h2.9l-1.4-4.1-1.5 4.1zM231.4 54.1c0-.4-.2-.8-.5-1.1-.3-.3-.8-.4-1.4-.4-.5 0-.9.1-1.2.4-.3.3-.5.6-.5 1H226c0-.5.2-1 .5-1.4s.7-.8 1.3-1c.5-.2 1.1-.4 1.8-.4 1.1 0 2 .2 2.7.7.6.5.9 1.2.9 2.1 0 .5-.1.9-.4 1.2s-.7.7-1.1.9c.6.2 1 .5 1.3.9.3.4.4.9.4 1.5 0 .9-.3 1.6-1 2.1s-1.6.8-2.7.8c-.7 0-1.3-.1-1.9-.4s-1-.6-1.3-1c-.3-.4-.4-.9-.4-1.5h1.7c0 .4.2.8.5 1.1.4.3.8.4 1.4.4.6 0 1.1-.1 1.5-.4.4-.3.6-.7.6-1.1 0-.6-.2-1-.5-1.2-.3-.3-.8-.4-1.4-.4h-1.2v-1.4h1.1c1 .1 1.6-.4 1.6-1.4zM240.4 59h-3.9l-.8 2.3H234l3.8-10h1.6l3.8 10h-1.8l-1-2.3zm-3.3-1.4h2.9l-1.4-4.1-1.5 4.1zM245.9 57.6v3.7h-1.7v-10h3.8c1.1 0 2 .3 2.6.9.7.6 1 1.3 1 2.3 0 1-.3 1.7-1 2.3-.6.5-1.5.8-2.7.8h-2zm0-1.3h2.1c.6 0 1.1-.1 1.4-.4.3-.3.5-.7.5-1.3 0-.5-.2-1-.5-1.3-.3-.3-.8-.5-1.4-.5h-2.1v3.5z"/></g><path class="st1" d="M247.8 21.2h-3v5.5h-1.1v-6.4h4.1v.9z"/></g><g id="soyombo"><path id="circle2461" class="st1" d="M33.2 40.5c-3.6 0-6.5 3-6.5 6.6 0 2.6 1.6 5 4 6-1.5-1.4-1.5-3.7-.1-5.2.7-.7 1.6-1.1 2.6-1.1 1.7 0 3.1-1.5 3.1-3.2 0-1.5-1.1-2.8-2.6-3.1h-.5zm2.5.5c1.4 1.4 1.5 3.7 0 5.2-.7.7-1.6 1.1-2.6 1.1-1.7-.1-3.2 1.3-3.2 3s1.3 3.2 3 3.2h.2c3.6 0 6.5-2.9 6.5-6.5.1-2.6-1.5-4.9-3.9-6zm-2.5 1.4c.7 0 1.3.6 1.3 1.3 0 .7-.6 1.3-1.3 1.3-.7 0-1.3-.6-1.3-1.3 0-.8.6-1.3 1.3-1.3zm0 6.8c.7 0 1.3.6 1.3 1.3 0 .7-.6 1.3-1.3 1.3s-1.3-.6-1.3-1.3c0-.7.6-1.3 1.3-1.3z"/><path id="lower_bow_of_crescent" class="st1" d="M26 22.8v.1c0 4 3.2 7.2 7.2 7.2s7.2-3.2 7.2-7.2v-.1c-1.7 4-6.4 5.8-10.3 4-1.9-.8-3.3-2.2-4.1-4z"/><circle id="upper_circle" class="st1" cx="33.2" cy="20.9" r="5.2"/><path id="flame" class="st1" d="M33 4c-1 .7-.2 1.9-.3 2.5s-.4.8-.6 1.3c-.2.6-.2 1.1 0 1.7.1.2.2.4.3.7v.1c0 .4-.3.7-.7.7-.4 0-.7-.3-.7-.6v-.1c.1-.3.4-.6.4-1.1 0-.4-.2-.8-.5-1.1-.1-.3-.1-.6 0-.9-.3.3-.6.6-.6 1s.1.6.1 1-.8.8-.8 2c-.1 1.8 1.3 3.3 3.1 3.4 1.8.1 3.3-1.3 3.4-3.1v-.4c0-1.2-.8-1.5-.8-2 0-.3.1-.7.1-1 0-.4-.3-.6-.6-1 .1.3.1.6 0 .9-.3.3-.4.7-.5 1.1 0 .4.3.8.4 1.1v.2c0 .4-.3.7-.6.7s-.5-.2-.6-.4v-.4l.3-.6c.2-.4.3-.9.3-1.4 0-.8-.2-1.6-.7-2.2-.3-.4-.6-.8-.9-1.3.2-.3.3-.6.5-.8z"/><path id="left_beam" class="st1" d="M18.8 31.4h6.5v31.4h-6.5V31.4z"/><path id="right_beam" class="st1" d="M41 31.4h6.5v31.4H41V31.4z"/><path id="upper_triangle" class="st1" d="M26.8 31.4h12.7l-6.3 3.9-6.4-3.9z"/><path id="upper_crossbeam" class="st1" d="M26.6 36.6h13.1v2.6H26.6v-2.6z"/><path id="lower_crossbeam" class="st1" d="M26.6 54.9h13.1v2.6H26.6v-2.6z"/><path id="lower_triangle" class="st1" d="M26.8 58.8h12.7l-6.3 3.9c0 .1-6.4-3.9-6.4-3.9z"/></g></svg>