<?xml version="1.0" encoding="utf-8"?>
<!-- Generator: Adobe Illustrator 16.0.0, SVG Export Plug-In . SVG Version: 6.00 Build 0)  -->
<!DOCTYPE svg PUBLIC "-//W3C//DTD SVG 1.1//EN" "http://www.w3.org/Graphics/SVG/1.1/DTD/svg11.dtd">
<svg version="1.1" id="Layer_1" xmlns="http://www.w3.org/2000/svg" xmlns:xlink="http://www.w3.org/1999/xlink" x="0px" y="0px"
	 width="524.223px" height="96px" viewBox="0 0 524.223 96" enable-background="new 0 0 524.223 96" xml:space="preserve">
<g>
	<g>
		<path fill="#1F7C1D" d="M124.234,18.648h-6.289v2.729h2.264c1.658,0,2.972,0.401,3.942,1.204s1.456,1.885,1.456,3.246
			c0,1.367-0.481,2.466-1.446,3.294c-0.964,0.829-2.246,1.25-3.846,1.263h-5.302V16.297h9.221V18.648z M117.945,23.718v4.334h2.312
			c0.741,0,1.333-0.203,1.775-0.609c0.441-0.406,0.662-0.951,0.662-1.635c0-0.639-0.211-1.144-0.633-1.515
			c-0.423-0.37-1.002-0.562-1.737-0.575H117.945z"/>
		<path fill="#1F7C1D" d="M135.409,27.481h-5.09l-0.967,2.902h-3.087l5.244-14.087h2.689l5.273,14.087h-3.087L135.409,27.481z
			 M131.104,25.13h3.521l-1.771-5.272L131.104,25.13z"/>
		<path fill="#1F7C1D" d="M143.69,25.421v4.963h-2.902V16.297h5.495c1.058,0,1.988,0.193,2.791,0.581
			c0.804,0.387,1.421,0.937,1.854,1.649c0.432,0.713,0.647,1.523,0.647,2.434c0,1.38-0.473,2.469-1.417,3.265
			c-0.945,0.797-2.253,1.195-3.923,1.195H143.69z M143.69,23.069h2.593c0.768,0,1.353-0.181,1.756-0.542
			c0.403-0.36,0.604-0.877,0.604-1.548c0-0.689-0.203-1.248-0.609-1.674s-0.967-0.645-1.684-0.657h-2.66V23.069z"/>
		<path fill="#1F7C1D" d="M162.015,16.297h2.912v14.087h-2.912v-9.355l-5.641,9.355h-2.902V16.297h2.902v9.375L162.015,16.297z"/>
		<path fill="#1F7C1D" d="M179.062,16.297v14.087h-2.912V18.648h-3.754l-0.232,4.973c-0.097,1.677-0.31,2.998-0.639,3.962
			s-0.81,1.671-1.441,2.119s-1.496,0.675-2.593,0.682h-0.755v-2.332l0.484-0.048c0.729-0.097,1.249-0.518,1.562-1.263
			c0.312-0.745,0.511-2.072,0.595-3.981l0.242-6.463H179.062z"/>
		<path fill="#1F7C1D" d="M190.836,18.648h-6.317v11.735h-2.902V16.297h9.22V18.648z"/>
		<path fill="#1F7C1D" d="M195.587,21.377h2.264c1.657,0,2.972,0.401,3.942,1.204s1.456,1.885,1.456,3.246
			c0,1.367-0.482,2.466-1.446,3.294c-0.965,0.829-2.246,1.25-3.846,1.263h-5.292V16.297h2.922V21.377z M195.587,23.718v4.334h2.312
			c0.742,0,1.334-0.203,1.775-0.609c0.442-0.406,0.663-0.951,0.663-1.635c0-0.639-0.211-1.144-0.634-1.515
			c-0.423-0.37-1.001-0.562-1.736-0.575H195.587z M207.36,30.384h-2.902V16.297h2.902V30.384z"/>
		<path fill="#1F7C1D" d="M221.37,30.384h-2.902v-6.037h-5.66v6.037h-2.902V16.297h2.902v5.708h5.66v-5.708h2.902V30.384z"/>
		<path fill="#1F7C1D" d="M239.897,25.691c-0.11,1.516-0.67,2.709-1.679,3.58c-1.01,0.87-2.34,1.306-3.991,1.306
			c-1.806,0-3.227-0.607-4.262-1.823s-1.553-2.885-1.553-5.007v-0.861c0-1.354,0.238-2.548,0.716-3.58
			c0.478-1.031,1.159-1.823,2.046-2.375c0.888-0.551,1.918-0.827,3.092-0.827c1.625,0,2.935,0.436,3.928,1.307
			c0.993,0.87,1.567,2.093,1.723,3.666h-2.903c-0.07-0.909-0.323-1.568-0.759-1.979c-0.436-0.409-1.099-0.614-1.988-0.614
			c-0.968,0-1.691,0.347-2.172,1.04s-0.728,1.77-0.74,3.227v1.064c0,1.522,0.23,2.635,0.691,3.338s1.188,1.055,2.182,1.055
			c0.896,0,1.565-0.205,2.008-0.614c0.441-0.41,0.694-1.043,0.76-1.901H239.897z"/>
		<path fill="#1F7C1D" d="M249.756,27.481h-5.09l-0.967,2.902h-3.087l5.244-14.087h2.689l5.273,14.087h-3.087L249.756,27.481z
			 M245.45,25.13h3.521l-1.771-5.272L245.45,25.13z"/>
		<path fill="#1F7C1D" d="M266.755,16.297v14.087h-2.912V18.648h-3.754l-0.232,4.973c-0.097,1.677-0.31,2.998-0.639,3.962
			s-0.81,1.671-1.441,2.119s-1.496,0.675-2.593,0.682h-0.755v-2.332l0.484-0.048c0.729-0.097,1.249-0.518,1.562-1.263
			c0.312-0.745,0.511-2.072,0.595-3.981l0.242-6.463H266.755z"/>
		<path fill="#1F7C1D" d="M278.48,18.648h-6.289v2.729h2.264c1.658,0,2.972,0.401,3.942,1.204s1.456,1.885,1.456,3.246
			c0,1.367-0.481,2.466-1.446,3.294c-0.964,0.829-2.246,1.25-3.846,1.263h-5.302V16.297h9.221V18.648z M272.191,23.718v4.334h2.312
			c0.741,0,1.333-0.203,1.775-0.609c0.441-0.406,0.662-0.951,0.662-1.635c0-0.639-0.211-1.144-0.633-1.515
			c-0.423-0.37-1.002-0.562-1.737-0.575H272.191z"/>
		<path fill="#1F7C1D" d="M289.655,27.481h-5.09l-0.967,2.902h-3.087l5.244-14.087h2.689l5.273,14.087h-3.087L289.655,27.481z
			 M285.35,25.13h3.521l-1.771-5.272L285.35,25.13z"/>
		<path fill="#1F7C1D" d="M297.937,25.421v4.963h-2.902V16.297h5.495c1.058,0,1.988,0.193,2.791,0.581
			c0.804,0.387,1.421,0.937,1.854,1.649c0.432,0.713,0.647,1.523,0.647,2.434c0,1.38-0.473,2.469-1.417,3.265
			c-0.945,0.797-2.253,1.195-3.923,1.195H297.937z M297.937,23.069h2.593c0.768,0,1.353-0.181,1.756-0.542
			c0.403-0.36,0.604-0.877,0.604-1.548c0-0.689-0.203-1.248-0.609-1.674s-0.967-0.645-1.684-0.657h-2.66V23.069z"/>
		<path fill="#1F7C1D" d="M310.766,21.377h2.264c1.657,0,2.972,0.401,3.942,1.204s1.456,1.885,1.456,3.246
			c0,1.367-0.482,2.466-1.446,3.294c-0.965,0.829-2.246,1.25-3.846,1.263h-5.292V16.297h2.922V21.377z M310.766,23.718v4.334h2.312
			c0.742,0,1.334-0.203,1.775-0.609c0.442-0.406,0.663-0.951,0.663-1.635c0-0.639-0.211-1.144-0.634-1.515
			c-0.423-0.37-1.001-0.562-1.736-0.575H310.766z M322.539,30.384h-2.902V16.297h2.902V30.384z"/>
		<path fill="#1F7C1D" d="M336.549,30.384h-2.902v-6.037h-5.66v6.037h-2.902V16.297h2.902v5.708h5.66v-5.708h2.902V30.384z"/>
		<path fill="#1F7C1D" d="M346.272,25.701c0.084,0.909,0.352,1.562,0.804,1.959c0.451,0.396,1.105,0.595,1.964,0.595
			c0.948,0,1.65-0.314,2.108-0.942c0.458-0.629,0.723-1.56,0.794-2.792h-4.45V22.17h4.44c-0.077-1.258-0.359-2.191-0.847-2.801
			s-1.182-0.914-2.085-0.914c-0.877,0-1.535,0.208-1.974,0.624s-0.693,1.085-0.765,2.007h-2.902
			c0.142-1.541,0.705-2.757,1.688-3.647c0.983-0.89,2.301-1.335,3.952-1.335c1.174,0,2.204,0.276,3.091,0.827
			c0.887,0.552,1.569,1.342,2.047,2.37c0.477,1.029,0.716,2.228,0.716,3.595v0.919c0,2.077-0.518,3.724-1.553,4.939
			s-2.456,1.823-4.262,1.823c-1.664,0-2.998-0.44-4.001-1.32c-1.003-0.881-1.56-2.065-1.669-3.556H346.272z"/>
		<path fill="#1F7C1D" d="M359.808,25.421v4.963h-2.902V16.297h5.495c1.058,0,1.988,0.193,2.791,0.581
			c0.804,0.387,1.421,0.937,1.854,1.649c0.432,0.713,0.647,1.523,0.647,2.434c0,1.38-0.473,2.469-1.417,3.265
			c-0.945,0.797-2.253,1.195-3.923,1.195H359.808z M359.808,23.069h2.593c0.768,0,1.353-0.181,1.756-0.542
			c0.403-0.36,0.604-0.877,0.604-1.548c0-0.689-0.203-1.248-0.609-1.674s-0.967-0.645-1.684-0.657h-2.66V23.069z"/>
		<path fill="#1F7C1D" d="M380.928,16.297v14.087h-2.912v-5.341c-0.884,0.188-1.806,0.281-2.768,0.281
			c-1.786,0-3.143-0.391-4.067-1.171c-0.926-0.78-1.401-1.909-1.428-3.387v-4.47h2.912v4.412c0.007,0.807,0.202,1.387,0.586,1.741
			c0.384,0.355,1.05,0.532,1.997,0.532c0.962,0,1.884-0.094,2.768-0.28v-6.405H380.928z"/>
		<path fill="#1F7C1D" d="M391.909,16.297h2.912v14.087h-2.912v-9.355l-5.641,9.355h-2.902V16.297h2.902v9.375L391.909,16.297z"/>
		<path fill="#1F7C1D" d="M401.128,16.297l3.619,10.217l3.599-10.217h3.812v14.087h-2.912v-3.851l0.29-6.646l-3.803,10.497h-1.993
			l-3.792-10.487l0.29,6.637v3.851h-2.902V16.297H401.128z"/>
		<path fill="#1F7C1D" d="M424.668,21.154l2.641-4.857h3.338l-4.103,6.985l4.209,7.102h-3.377l-2.708-4.935l-2.709,4.935h-3.377
			l4.209-7.102l-4.103-6.985h3.338L424.668,21.154z"/>
		<path fill="#1F7C1D" d="M437.07,22.644l2.932-6.347h3.174l-4.625,8.979v5.108H435.6v-5.108l-4.624-8.979h3.183L437.07,22.644z"/>
		<path fill="#1F7C1D" d="M455.705,16.297v14.087h-2.912v-5.341c-0.884,0.188-1.806,0.281-2.768,0.281
			c-1.786,0-3.143-0.391-4.067-1.171c-0.926-0.78-1.401-1.909-1.428-3.387v-4.47h2.912v4.412c0.007,0.807,0.202,1.387,0.586,1.741
			c0.384,0.355,1.05,0.532,1.997,0.532c0.962,0,1.884-0.094,2.768-0.28v-6.405H455.705z"/>
		<path fill="#1F7C1D" d="M469.704,30.384h-2.902v-6.037h-5.66v6.037h-2.902V16.297h2.902v5.708h5.66v-5.708h2.902V30.384z"/>
		<path fill="#1F7C1D" d="M480.686,16.297h2.912v14.087h-2.912v-9.355l-5.641,9.355h-2.902V16.297h2.902v9.375L480.686,16.297z"/>
		<path fill="#1F7C1D" d="M494.56,16.297h2.912v14.087h-2.912v-9.355l-5.641,9.355h-2.902V16.297h2.902v9.375L494.56,16.297z
			 M495.12,12.602c0,0.854-0.308,1.546-0.924,2.073c-0.616,0.526-1.424,0.79-2.423,0.79c-1,0-1.809-0.26-2.424-0.78
			c-0.616-0.521-0.924-1.216-0.924-2.083h1.983c0,0.406,0.12,0.721,0.362,0.943s0.576,0.334,1.002,0.334
			c0.419,0,0.748-0.111,0.986-0.334s0.358-0.537,0.358-0.943H495.12z"/>
		<path fill="#1F7C1D" d="M120.084,44.932l2.641-4.857h3.338l-4.103,6.985l4.209,7.102h-3.377l-2.708-4.935l-2.709,4.935h-3.377
			l4.209-7.102l-4.103-6.985h3.338L120.084,44.932z"/>
		<path fill="#1F7C1D" d="M129.884,49.479c0.084,0.909,0.352,1.562,0.804,1.959c0.451,0.396,1.105,0.595,1.964,0.595
			c0.948,0,1.65-0.314,2.108-0.942c0.458-0.629,0.723-1.56,0.794-2.792h-4.45v-2.351h4.44c-0.077-1.258-0.359-2.191-0.847-2.801
			s-1.182-0.914-2.085-0.914c-0.877,0-1.535,0.208-1.974,0.624s-0.693,1.085-0.765,2.007h-2.902
			c0.142-1.541,0.705-2.757,1.688-3.647c0.983-0.89,2.301-1.335,3.952-1.335c1.174,0,2.204,0.276,3.091,0.827
			c0.887,0.552,1.569,1.342,2.047,2.37c0.477,1.029,0.716,2.228,0.716,3.595v0.919c0,2.077-0.518,3.724-1.553,4.939
			s-2.456,1.823-4.262,1.823c-1.664,0-2.998-0.44-4.001-1.32c-1.003-0.881-1.56-2.065-1.669-3.556H129.884z"/>
		<path fill="#1F7C1D" d="M143.419,49.198v4.963h-2.902V40.074h5.495c1.058,0,1.988,0.193,2.791,0.581
			c0.804,0.387,1.421,0.937,1.854,1.649c0.432,0.713,0.647,1.523,0.647,2.434c0,1.38-0.473,2.469-1.417,3.265
			c-0.945,0.797-2.253,1.195-3.923,1.195H143.419z M143.419,46.847h2.593c0.768,0,1.353-0.181,1.756-0.542
			c0.403-0.36,0.604-0.877,0.604-1.548c0-0.689-0.203-1.248-0.609-1.674s-0.967-0.645-1.684-0.657h-2.66V46.847z"/>
		<path fill="#1F7C1D" d="M155.552,49.479c0.084,0.909,0.352,1.562,0.804,1.959c0.451,0.396,1.105,0.595,1.964,0.595
			c0.948,0,1.65-0.314,2.108-0.942c0.458-0.629,0.723-1.56,0.794-2.792h-4.45v-2.351h4.44c-0.077-1.258-0.359-2.191-0.847-2.801
			s-1.182-0.914-2.085-0.914c-0.877,0-1.535,0.208-1.974,0.624s-0.693,1.085-0.765,2.007h-2.902
			c0.142-1.541,0.705-2.757,1.688-3.647c0.983-0.89,2.301-1.335,3.952-1.335c1.174,0,2.204,0.276,3.091,0.827
			c0.887,0.552,1.569,1.342,2.047,2.37c0.477,1.029,0.716,2.228,0.716,3.595v0.919c0,2.077-0.518,3.724-1.553,4.939
			s-2.456,1.823-4.262,1.823c-1.664,0-2.998-0.44-4.001-1.32c-1.003-0.881-1.56-2.065-1.669-3.556H155.552z"/>
		<path fill="#1F7C1D" d="M175.424,42.426h-6.317v11.735h-2.902V40.074h9.22V42.426z"/>
		<path fill="#1F7C1D" d="M187.614,40.074v14.087h-2.912V42.426h-3.754l-0.232,4.973c-0.097,1.677-0.31,2.998-0.639,3.962
			s-0.81,1.671-1.441,2.119s-1.496,0.675-2.593,0.682h-0.755v-2.332l0.484-0.048c0.729-0.097,1.249-0.518,1.562-1.263
			c0.312-0.745,0.511-2.072,0.595-3.981l0.242-6.463H187.614z"/>
		<path fill="#1F7C1D" d="M192.403,49.479c0.084,0.909,0.352,1.562,0.804,1.959c0.451,0.396,1.105,0.595,1.964,0.595
			c0.948,0,1.65-0.314,2.108-0.942c0.458-0.629,0.723-1.56,0.794-2.792h-4.45v-2.351h4.44c-0.077-1.258-0.359-2.191-0.847-2.801
			s-1.182-0.914-2.085-0.914c-0.877,0-1.535,0.208-1.974,0.624s-0.693,1.085-0.765,2.007h-2.902
			c0.142-1.541,0.705-2.757,1.688-3.647c0.983-0.89,2.301-1.335,3.952-1.335c1.174,0,2.204,0.276,3.091,0.827
			c0.887,0.552,1.569,1.342,2.047,2.37c0.477,1.029,0.716,2.228,0.716,3.595v0.919c0,2.077-0.518,3.724-1.553,4.939
			s-2.456,1.823-4.262,1.823c-1.664,0-2.998-0.44-4.001-1.32c-1.003-0.881-1.56-2.065-1.669-3.556H192.403z"/>
		<path fill="#1F7C1D" d="M205.29,49.479c0.084,0.909,0.352,1.562,0.804,1.959c0.451,0.396,1.105,0.595,1.964,0.595
			c0.948,0,1.65-0.314,2.108-0.942c0.458-0.629,0.723-1.56,0.794-2.792h-4.45v-2.351h4.44c-0.077-1.258-0.359-2.191-0.847-2.801
			s-1.182-0.914-2.085-0.914c-0.877,0-1.535,0.208-1.974,0.624s-0.693,1.085-0.765,2.007h-2.902
			c0.142-1.541,0.705-2.757,1.688-3.647c0.983-0.89,2.301-1.335,3.952-1.335c1.174,0,2.204,0.276,3.091,0.827
			c0.887,0.552,1.569,1.342,2.047,2.37c0.477,1.029,0.716,2.228,0.716,3.595v0.919c0,2.077-0.518,3.724-1.553,4.939
			s-2.456,1.823-4.262,1.823c-1.664,0-2.998-0.44-4.001-1.32c-1.003-0.881-1.56-2.065-1.669-3.556H205.29z"/>
		<path fill="#1F7C1D" d="M216.465,57.692l-1.461-0.765l0.348-0.629c0.433-0.786,0.655-1.57,0.668-2.351v-2.167h2.36l-0.01,1.935
			c-0.006,0.716-0.187,1.438-0.541,2.167C217.474,56.612,217.02,57.215,216.465,57.692z"/>
		<path fill="#1F7C1D" d="M230.735,44.932l2.641-4.857h3.338l-4.103,6.985l4.209,7.102h-3.377l-2.708-4.935l-2.709,4.935h-3.377
			l4.209-7.102l-4.103-6.985h3.338L230.735,44.932z"/>
		<path fill="#1F7C1D" d="M243.138,46.421l2.932-6.347h3.174l-4.625,8.979v5.108h-2.951v-5.108l-4.624-8.979h3.183L243.138,46.421z"
			/>
		<path fill="#1F7C1D" d="M261.985,40.074v14.087h-2.912V42.426h-3.754l-0.232,4.973c-0.097,1.677-0.31,2.998-0.639,3.962
			s-0.81,1.671-1.441,2.119s-1.496,0.675-2.593,0.682h-0.755v-2.332l0.484-0.048c0.729-0.097,1.249-0.518,1.562-1.263
			c0.312-0.745,0.511-2.072,0.595-3.981l0.242-6.463H261.985z"/>
		<path fill="#1F7C1D" d="M266.773,49.479c0.084,0.909,0.352,1.562,0.804,1.959c0.451,0.396,1.105,0.595,1.964,0.595
			c0.948,0,1.65-0.314,2.108-0.942c0.458-0.629,0.723-1.56,0.794-2.792h-4.45v-2.351h4.44c-0.077-1.258-0.359-2.191-0.847-2.801
			s-1.182-0.914-2.085-0.914c-0.877,0-1.535,0.208-1.974,0.624s-0.693,1.085-0.765,2.007h-2.902
			c0.142-1.541,0.705-2.757,1.688-3.647c0.983-0.89,2.301-1.335,3.952-1.335c1.174,0,2.204,0.276,3.091,0.827
			c0.887,0.552,1.569,1.342,2.047,2.37c0.477,1.029,0.716,2.228,0.716,3.595v0.919c0,2.077-0.518,3.724-1.553,4.939
			s-2.456,1.823-4.262,1.823c-1.664,0-2.998-0.44-4.001-1.32c-1.003-0.881-1.56-2.065-1.669-3.556H266.773z"/>
		<path fill="#1F7C1D" d="M281.198,40.074l3.619,10.217l3.599-10.217h3.812v14.087h-2.912v-3.851l0.29-6.646l-3.803,10.497h-1.993
			l-3.792-10.487l0.29,6.637v3.851h-2.902V40.074H281.198z"/>
		<path fill="#1F7C1D" d="M306.809,48.424h-1.674v5.737h-2.902v-5.737h-1.713l-3.066,5.737h-3.619l4.393-7.556l-4.18-6.531h3.609
			l3.135,5.68h1.441v-5.68h2.902v5.68h1.412l3.058-5.68h3.599l-4.102,6.521l4.324,7.565h-3.628L306.809,48.424z"/>
		<path fill="#1F7C1D" d="M323.14,40.074h2.912v14.087h-2.912v-9.355l-5.641,9.355h-2.902V40.074h2.902v9.375L323.14,40.074z"/>
		<path fill="#1F7C1D" d="M337.014,40.074h2.912v14.087h-2.912v-9.355l-5.641,9.355h-2.902V40.074h2.902v9.375L337.014,40.074z
			 M337.574,36.379c0,0.854-0.308,1.546-0.924,2.073c-0.616,0.526-1.424,0.79-2.423,0.79c-1,0-1.809-0.26-2.424-0.78
			c-0.616-0.521-0.924-1.216-0.924-2.083h1.983c0,0.406,0.12,0.721,0.362,0.943s0.576,0.334,1.002,0.334
			c0.419,0,0.748-0.111,0.986-0.334s0.358-0.537,0.358-0.943H337.574z"/>
		<path fill="#1F7C1D" d="M353.906,54.161h-2.902v-6.037h-5.66v6.037h-2.902V40.074h2.902v5.708h5.66v-5.708h2.902V54.161z"/>
		<path fill="#1F7C1D" d="M366.416,44.932l2.641-4.857h3.338l-4.103,6.985l4.209,7.102h-3.377l-2.708-4.935l-2.709,4.935h-3.377
			l4.209-7.102l-4.103-6.985h3.338L366.416,44.932z"/>
		<path fill="#1F7C1D" d="M382.408,40.074h2.912v14.087h-2.912v-9.355l-5.641,9.355h-2.902V40.074h2.902v9.375L382.408,40.074z"/>
		<path fill="#1F7C1D" d="M396.282,40.074h2.912v14.087h-2.912v-9.355l-5.641,9.355h-2.902V40.074h2.902v9.375L396.282,40.074z
			 M396.843,36.379c0,0.854-0.308,1.546-0.924,2.073c-0.616,0.526-1.424,0.79-2.423,0.79c-1,0-1.809-0.26-2.424-0.78
			c-0.616-0.521-0.924-1.216-0.924-2.083h1.983c0,0.406,0.12,0.721,0.362,0.943s0.576,0.334,1.002,0.334
			c0.419,0,0.748-0.111,0.986-0.334s0.358-0.537,0.358-0.943H396.843z"/>
		<path fill="#1F7C1D" d="M413.174,54.161h-2.902v-6.037h-5.66v6.037h-2.902V40.074h2.902v5.708h5.66v-5.708h2.902V54.161z"/>
		<path fill="#1F7C1D" d="M427.154,54.161v-5.079h-2.36l-2.545,5.079h-3.134l3.009-6.008c-1.451-0.8-2.177-2.042-2.177-3.726
			c0-1.38,0.451-2.447,1.354-3.202c0.902-0.755,2.163-1.138,3.782-1.151h4.982v14.087H427.154z M422.85,44.641
			c0,0.787,0.191,1.358,0.575,1.713s0.96,0.532,1.728,0.532h2.002v-4.46h-2.002C423.617,42.426,422.85,43.164,422.85,44.641z"/>
		<path fill="#1F7C1D" d="M443.921,40.074v14.087h-2.912V42.426h-3.754l-0.232,4.973c-0.097,1.677-0.31,2.998-0.639,3.962
			s-0.81,1.671-1.441,2.119s-1.496,0.675-2.593,0.682h-0.755v-2.332l0.484-0.048c0.729-0.097,1.249-0.518,1.562-1.263
			c0.312-0.745,0.511-2.072,0.595-3.981l0.242-6.463H443.921z"/>
		<path fill="#1F7C1D" d="M455.695,42.426h-6.317v11.735h-2.902V40.074h9.22V42.426z"/>
		<path fill="#1F7C1D" d="M463.465,51.259h-5.09l-0.967,2.902h-3.087l5.244-14.087h2.689l5.273,14.087h-3.087L463.465,51.259z
			 M459.159,48.907h3.521l-1.771-5.272L459.159,48.907z"/>
		<path fill="#1F7C1D" d="M471.746,49.198v4.963h-2.902V40.074h5.495c1.058,0,1.988,0.193,2.791,0.581
			c0.804,0.387,1.421,0.937,1.854,1.649c0.432,0.713,0.647,1.523,0.647,2.434c0,1.38-0.473,2.469-1.417,3.265
			c-0.945,0.797-2.253,1.195-3.923,1.195H471.746z M471.746,46.847h2.593c0.768,0,1.353-0.181,1.756-0.542
			c0.403-0.36,0.604-0.877,0.604-1.548c0-0.689-0.203-1.248-0.609-1.674s-0.967-0.645-1.684-0.657h-2.66V46.847z"/>
		<path fill="#1F7C1D" d="M491.676,40.074v14.087h-2.912V42.426h-3.754l-0.232,4.973c-0.097,1.677-0.31,2.998-0.639,3.962
			s-0.81,1.671-1.441,2.119s-1.496,0.675-2.593,0.682h-0.755v-2.332l0.484-0.048c0.729-0.097,1.249-0.518,1.562-1.263
			c0.312-0.745,0.511-2.072,0.595-3.981l0.242-6.463H491.676z"/>
		<path fill="#1F7C1D" d="M497.162,45.154h2.264c1.657,0,2.972,0.401,3.942,1.204s1.456,1.885,1.456,3.246
			c0,1.367-0.482,2.466-1.446,3.294c-0.965,0.829-2.246,1.25-3.846,1.263h-5.292V40.074h2.922V45.154z M497.162,47.495v4.334h2.312
			c0.742,0,1.334-0.203,1.775-0.609c0.442-0.406,0.663-0.951,0.663-1.635c0-0.639-0.211-1.144-0.634-1.515
			c-0.423-0.37-1.001-0.562-1.736-0.575H497.162z M508.936,54.161h-2.902V40.074h2.902V54.161z"/>
		<path fill="#1F7C1D" d="M522.945,54.161h-2.902v-6.037h-5.66v6.037h-2.902V40.074h2.902v5.708h5.66v-5.708h2.902V54.161z"/>
		<path fill="#1F7C1D" d="M125.646,66.202h-4.314v11.735h-2.903V66.202h-4.257v-2.352h11.475V66.202z"/>
		<path fill="#1F7C1D" d="M138.602,71.214c0,1.387-0.245,2.603-0.735,3.647s-1.191,1.851-2.104,2.418
			c-0.913,0.568-1.959,0.852-3.14,0.852c-1.167,0-2.209-0.28-3.125-0.842c-0.916-0.561-1.625-1.362-2.128-2.404
			c-0.504-1.041-0.758-2.239-0.765-3.594v-0.696c0-1.387,0.25-2.607,0.75-3.662s1.206-1.864,2.118-2.429
			c0.913-0.564,1.956-0.847,3.13-0.847s2.218,0.282,3.13,0.847c0.913,0.564,1.619,1.374,2.119,2.429s0.75,2.271,0.75,3.652V71.214z
			 M135.66,70.575c0-1.478-0.265-2.6-0.793-3.367c-0.529-0.768-1.284-1.151-2.265-1.151c-0.974,0-1.725,0.379-2.254,1.137
			s-0.797,1.869-0.803,3.333v0.688c0,1.438,0.265,2.554,0.793,3.347c0.529,0.794,1.29,1.19,2.283,1.19
			c0.974,0,1.723-0.382,2.245-1.146s0.786-1.879,0.793-3.343V70.575z"/>
		<path fill="#1F7C1D" d="M152.281,71.214c0,1.387-0.245,2.603-0.735,3.647s-1.191,1.851-2.104,2.418
			c-0.913,0.568-1.959,0.852-3.14,0.852c-1.167,0-2.209-0.28-3.125-0.842c-0.916-0.561-1.625-1.362-2.128-2.404
			c-0.504-1.041-0.758-2.239-0.765-3.594v-0.696c0-1.387,0.25-2.607,0.75-3.662s1.206-1.864,2.118-2.429
			c0.913-0.564,1.956-0.847,3.13-0.847s2.218,0.282,3.13,0.847c0.913,0.564,1.619,1.374,2.119,2.429s0.75,2.271,0.75,3.652V71.214z
			 M149.34,70.575c0-1.478-0.265-2.6-0.793-3.367c-0.529-0.768-1.284-1.151-2.265-1.151c-0.974,0-1.725,0.379-2.254,1.137
			s-0.797,1.869-0.803,3.333v0.688c0,1.438,0.265,2.554,0.793,3.347c0.529,0.794,1.29,1.19,2.283,1.19
			c0.974,0,1.723-0.382,2.245-1.146s0.786-1.879,0.793-3.343V70.575z"/>
		<path fill="#1F7C1D" d="M165.546,63.851v14.087h-2.912V66.202h-3.754l-0.232,4.973c-0.097,1.677-0.31,2.998-0.639,3.962
			s-0.81,1.671-1.441,2.119s-1.496,0.675-2.593,0.682h-0.755v-2.332l0.484-0.048c0.729-0.097,1.249-0.518,1.562-1.263
			c0.312-0.745,0.511-2.072,0.595-3.981l0.242-6.463H165.546z"/>
		<path fill="#1F7C1D" d="M179.7,63.851v14.087h-2.912V66.202h-3.754l-0.232,4.973c-0.097,1.677-0.31,2.998-0.639,3.962
			s-0.81,1.671-1.441,2.119s-1.496,0.675-2.593,0.682h-0.755v-2.332l0.484-0.048c0.729-0.097,1.249-0.518,1.562-1.263
			c0.312-0.745,0.511-2.072,0.595-3.981l0.242-6.463H179.7z"/>
		<path fill="#1F7C1D" d="M193.807,71.214c0,1.387-0.245,2.603-0.735,3.647s-1.191,1.851-2.104,2.418
			c-0.913,0.568-1.959,0.852-3.14,0.852c-1.167,0-2.209-0.28-3.125-0.842c-0.916-0.561-1.625-1.362-2.128-2.404
			c-0.504-1.041-0.758-2.239-0.765-3.594v-0.696c0-1.387,0.25-2.607,0.75-3.662s1.206-1.864,2.118-2.429
			c0.913-0.564,1.956-0.847,3.13-0.847s2.218,0.282,3.13,0.847c0.913,0.564,1.619,1.374,2.119,2.429s0.75,2.271,0.75,3.652V71.214z
			 M190.865,70.575c0-1.478-0.265-2.6-0.793-3.367c-0.529-0.768-1.284-1.151-2.265-1.151c-0.974,0-1.725,0.379-2.254,1.137
			s-0.797,1.869-0.803,3.333v0.688c0,1.438,0.265,2.554,0.793,3.347c0.529,0.794,1.29,1.19,2.283,1.19
			c0.974,0,1.723-0.382,2.245-1.146s0.786-1.879,0.793-3.343V70.575z"/>
		<path fill="#1F7C1D" d="M205.154,66.202h-6.317v11.735h-2.902V63.851h9.22V66.202z"/>
		<path fill="#1F7C1D" d="M209.905,68.931h2.264c1.657,0,2.972,0.401,3.942,1.204s1.456,1.885,1.456,3.246
			c0,1.367-0.482,2.466-1.446,3.294c-0.965,0.829-2.246,1.25-3.846,1.263h-5.292V63.851h2.922V68.931z M209.905,71.271v4.334h2.312
			c0.742,0,1.334-0.203,1.775-0.609c0.442-0.406,0.663-0.951,0.663-1.635c0-0.639-0.211-1.144-0.634-1.515
			c-0.423-0.37-1.001-0.562-1.736-0.575H209.905z M221.679,77.938h-2.902V63.851h2.902V77.938z"/>
		<path fill="#1F7C1D" d="M235.688,77.938h-2.902V71.9h-5.66v6.037h-2.902V63.851h2.902v5.708h5.66v-5.708h2.902V77.938z"/>
		<path fill="#1F7C1D" d="M254.216,73.245c-0.11,1.516-0.67,2.709-1.679,3.58c-1.01,0.87-2.34,1.306-3.991,1.306
			c-1.806,0-3.227-0.607-4.262-1.823s-1.553-2.885-1.553-5.007v-0.861c0-1.354,0.238-2.548,0.716-3.58
			c0.478-1.031,1.159-1.823,2.046-2.375c0.888-0.551,1.918-0.827,3.092-0.827c1.625,0,2.935,0.436,3.928,1.307
			c0.993,0.87,1.567,2.093,1.723,3.666h-2.903c-0.07-0.909-0.323-1.568-0.759-1.979c-0.436-0.409-1.099-0.614-1.988-0.614
			c-0.968,0-1.691,0.347-2.172,1.04s-0.728,1.77-0.74,3.227v1.064c0,1.522,0.23,2.635,0.691,3.338s1.188,1.055,2.182,1.055
			c0.896,0,1.565-0.205,2.008-0.614c0.441-0.41,0.694-1.043,0.76-1.901H254.216z"/>
		<path fill="#1F7C1D" d="M264.568,63.851h2.912v14.087h-2.912v-9.355l-5.641,9.355h-2.902V63.851h2.902v9.375L264.568,63.851z"/>
		<path fill="#1F7C1D" d="M281.055,73.245c-0.11,1.516-0.67,2.709-1.679,3.58c-1.01,0.87-2.34,1.306-3.991,1.306
			c-1.806,0-3.227-0.607-4.262-1.823s-1.553-2.885-1.553-5.007v-0.861c0-1.354,0.238-2.548,0.716-3.58
			c0.478-1.031,1.159-1.823,2.046-2.375c0.888-0.551,1.918-0.827,3.092-0.827c1.625,0,2.935,0.436,3.928,1.307
			c0.993,0.87,1.567,2.093,1.723,3.666h-2.903c-0.07-0.909-0.323-1.568-0.759-1.979c-0.436-0.409-1.099-0.614-1.988-0.614
			c-0.968,0-1.691,0.347-2.172,1.04s-0.728,1.77-0.74,3.227v1.064c0,1.522,0.23,2.635,0.691,3.338s1.188,1.055,2.182,1.055
			c0.896,0,1.565-0.205,2.008-0.614c0.441-0.41,0.694-1.043,0.76-1.901H281.055z"/>
		<path fill="#1F7C1D" d="M293.283,66.202h-4.314v11.735h-2.903V66.202h-4.257v-2.352h11.475V66.202z"/>
		<path fill="#1F7C1D" d="M303.413,71.833h-5.573v3.772h6.54v2.332h-9.442V63.851h9.423v2.352h-6.521v3.356h5.573V71.833z"/>
		<path fill="#1F7C1D" d="M309.875,63.851l3.619,10.217l3.599-10.217h3.812v14.087h-2.912v-3.851l0.29-6.646l-3.803,10.497h-1.993
			l-3.792-10.487l0.29,6.637v3.851h-2.902V63.851H309.875z"/>
	</g>
	<g>
		<g>
			
				<image overflow="visible" opacity="0.2" width="400" height="400" xlink:href="C4C57FC04E11467B.png"  transform="matrix(0.24 0 0 0.24 0 0)">
			</image>
			<g>
				<path fill="#FFFFFF" d="M92.914,64.142c0,15.888-12.893,28.772-28.772,28.772H31.77C15.893,92.914,3,80.029,3,64.142V31.77
					C3,15.883,15.893,3,31.77,3h32.372c15.88,0,28.772,12.883,28.772,28.77V64.142z"/>
			</g>
		</g>
		<g>
			<defs>
				<path id="SVGID_1_" d="M84.278,47.957c0,20.06-16.263,36.319-36.321,36.319c-20.062,0-36.322-16.26-36.322-36.319
					c0-20.062,16.26-36.321,36.322-36.321C68.016,11.636,84.278,27.896,84.278,47.957z"/>
			</defs>
			<clipPath id="SVGID_2_">
				<use xlink:href="#SVGID_1_"  overflow="visible"/>
			</clipPath>
			<g clip-path="url(#SVGID_2_)">
				<g>
					<path fill="#198C02" d="M20.049,90.76l-5.529-6.089c0.521-0.489,13.211-12.785,1.584-36.521
						C4.193,23.828,14.102,8.208,14.531,7.557l6.881,4.506l-3.443-2.254l3.461,2.222c-0.312,0.507-7.68,12.612,2.066,32.502
						C37.936,74.025,20.785,90.093,20.049,90.76z"/>
				</g>
				<g>
					<path fill="#33A809" d="M38.096,90.76l-5.529-6.089c0.521-0.489,13.211-12.785,1.59-36.521
						C22.243,23.828,32.152,8.208,32.578,7.557l6.883,4.506l-3.439-2.254l3.457,2.222c-0.319,0.507-7.679,12.612,2.062,32.502
						C55.988,74.025,38.835,90.093,38.096,90.76z"/>
				</g>
				<g>
					<path fill="#86CA17" d="M56.146,90.76l-5.532-6.089c0.523-0.489,13.214-12.785,1.593-36.521
						C40.287,23.828,50.201,8.208,50.633,7.557l6.875,4.506l-3.439-2.254l3.46,2.222c-0.314,0.507-7.679,12.612,2.062,32.502
						C74.033,74.025,56.882,90.093,56.146,90.76z"/>
				</g>
				<g>
					<path fill="#B0D115" d="M74.197,90.76l-5.529-6.089c0.521-0.489,13.206-12.785,1.585-36.521
						C58.342,23.828,68.254,8.208,68.676,7.557l6.887,4.506l-3.449-2.254l3.463,2.222c-0.318,0.507-7.678,12.612,2.062,32.502
						C92.085,74.025,74.934,90.093,74.197,90.76z"/>
				</g>
			</g>
		</g>
	</g>
</g>
</svg>
